<svg width="512" height="512" viewBox="0 0 512 512" fill="none" xmlns="http://www.w3.org/2000/svg">
<g clip-path="url(#clip0_12111_7381)">
<path d="M462 0H50C22.3858 0 0 22.3858 0 50V462C0 489.614 22.3858 512 50 512H462C489.614 512 512 489.614 512 462V50C512 22.3858 489.614 0 462 0Z" fill="#3178C6"/>
<path d="M462 0H50C22.3858 0 0 22.3858 0 50V462C0 489.614 22.3858 512 50 512H462C489.614 512 512 489.614 512 462V50C512 22.3858 489.614 0 462 0Z" fill="#3178C6"/>
<g clip-path="url(#clip1_12111_7381)">
<path d="M466.605 407.959L417.808 369.608C414.821 367.268 414.821 363.424 417.808 361.076L466.607 322.735C469.603 320.39 470.856 316.427 469.393 313.934C467.928 311.448 463.836 310.563 460.311 311.968L402.284 335.08C398.756 336.499 395.433 334.565 394.904 330.797L386.177 268.849C385.639 265.083 382.807 262 379.874 262C376.955 262 374.125 265.083 373.6 268.847L364.87 330.799C364.336 334.568 361.017 336.496 357.484 335.082L300.417 312.354C296.878 310.945 291.113 310.945 287.583 312.354L230.507 335.082C226.977 336.496 223.653 334.568 223.124 330.799L214.405 268.847C213.866 265.083 211.039 262 208.117 262C205.187 262 202.352 265.083 201.825 268.847L193.095 330.799C192.566 334.568 189.244 336.496 185.714 335.082L127.69 311.975C124.162 310.563 120.078 311.453 118.612 313.936C117.149 316.431 118.397 320.397 121.384 322.737L170.188 361.079C173.177 363.426 173.177 367.27 170.188 369.613L121.384 407.959C118.388 410.304 117.147 414.504 118.608 417.284C120.075 420.07 124.16 421.189 127.683 419.775L185.188 396.681C188.722 395.27 192.008 397.192 192.502 400.96L200.798 463.448C201.299 467.21 204.585 470.29 208.101 470.29C211.612 470.29 214.901 467.212 215.404 463.448L223.714 400.96C224.205 397.192 227.506 395.272 231.022 396.681L287.583 419.382C291.108 420.8 296.876 420.8 300.403 419.382L356.955 396.681C360.476 395.27 363.767 397.192 364.27 400.96L372.58 463.448C373.076 467.21 376.365 470.29 379.871 470.29C383.387 470.29 386.676 467.212 387.174 463.448L395.484 400.96C395.99 397.192 399.276 395.272 402.796 396.681L460.308 419.775C463.82 421.189 467.916 420.068 469.381 417.287C470.849 414.511 469.601 410.311 466.607 407.966L466.605 407.959ZM342.452 370.095L299.476 403.182C296.469 405.499 291.534 405.499 288.536 403.182L245.546 370.095C242.54 367.778 242.517 363.962 245.499 361.61L288.569 327.686C291.551 325.333 296.44 325.333 299.425 327.686L342.494 361.61C345.484 363.96 345.46 367.776 342.448 370.098L342.452 370.095Z" fill="white"/>
</g>
</g>
<defs>
<clipPath id="clip0_12111_7381">
<rect width="512" height="512" fill="white"/>
</clipPath>
<clipPath id="clip1_12111_7381">
<rect width="352" height="208.293" fill="white" transform="translate(118 262)"/>
</clipPath>
</defs>
</svg>
