<svg width="64" height="64" viewBox="0 0 64 64" fill="none" xmlns="http://www.w3.org/2000/svg">
<g clip-path="url(#clip0_12111_7389)">
<path d="M57.75 0H6.25C2.79822 0 0 2.79822 0 6.25V57.75C0 61.2018 2.79822 64 6.25 64H57.75C61.2018 64 64 61.2018 64 57.75V6.25C64 2.79822 61.2018 0 57.75 0Z" fill="#3178C6"/>
<path d="M57.75 0H6.25C2.79822 0 0 2.79822 0 6.25V57.75C0 61.2018 2.79822 64 6.25 64H57.75C61.2018 64 64 61.2018 64 57.75V6.25C64 2.79822 61.2018 0 57.75 0Z" fill="#3178C6"/>
<g clip-path="url(#clip1_12111_7389)">
<path d="M58.3253 50.9949L52.2256 46.201C51.8522 45.9085 51.8522 45.428 52.2256 45.1345L58.3255 40.3419C58.7001 40.0487 58.8566 39.5534 58.6737 39.2417C58.4906 38.931 57.9791 38.8204 57.5385 38.996L50.2851 41.885C49.8442 42.0623 49.4287 41.8206 49.3626 41.3496L48.2718 33.6061C48.2045 33.1353 47.8505 32.75 47.4838 32.75C47.119 32.75 46.7652 33.1353 46.6997 33.6058L45.6083 41.3499C45.5416 41.8209 45.1267 42.062 44.6852 41.8853L37.5518 39.0442C37.1094 38.8681 36.3887 38.8681 35.9475 39.0442L28.813 41.8853C28.3717 42.062 27.9562 41.8209 27.8901 41.3499L26.8002 33.6058C26.7329 33.1353 26.3795 32.75 26.0143 32.75C25.648 32.75 25.2937 33.1353 25.2278 33.6058L24.1365 41.3499C24.0703 41.8209 23.6551 42.062 23.2139 41.8853L15.9608 38.9968C15.5199 38.8204 15.0093 38.9316 14.8262 39.242C14.6433 39.5539 14.7993 40.0496 15.1726 40.3422L21.2731 45.1348C21.6468 45.4283 21.6468 45.9087 21.2731 46.2016L15.1726 50.9949C14.7981 51.2881 14.643 51.813 14.8256 52.1606C15.009 52.5087 15.5196 52.6486 15.96 52.4719L23.1481 49.5852C23.5899 49.4087 24.0007 49.649 24.0624 50.12L25.0994 57.9311C25.162 58.4013 25.5728 58.7863 26.0123 58.7863C26.4511 58.7863 26.8622 58.4015 26.9251 57.9311L27.9638 50.12C28.0253 49.649 28.4378 49.409 28.8773 49.5852L35.9475 52.4227C36.3882 52.6 37.1091 52.6 37.55 52.4227L44.6191 49.5852C45.0591 49.4087 45.4705 49.649 45.5334 50.12L46.5721 57.9311C46.6342 58.4013 47.0452 58.7863 47.4835 58.7863C47.923 58.7863 48.3341 58.4015 48.3964 57.9311L49.4351 50.12C49.4983 49.649 49.9091 49.409 50.3492 49.5852L57.5382 52.4719C57.9771 52.6486 58.4891 52.5085 58.6723 52.1609C58.8557 51.8138 58.6998 51.2889 58.3255 50.9958L58.3253 50.9949ZM42.8062 46.2619L37.4342 50.3977C37.0582 50.6874 36.4414 50.6874 36.0666 50.3977L30.6929 46.2619C30.3172 45.9722 30.3142 45.4953 30.687 45.2013L36.0707 40.9607C36.4435 40.6667 37.0547 40.6667 37.4277 40.9607L42.8114 45.2013C43.1851 45.495 43.1822 45.9719 42.8056 46.2622L42.8062 46.2619Z" fill="white"/>
</g>
</g>
<defs>
<clipPath id="clip0_12111_7389">
<rect width="64" height="64" fill="white"/>
</clipPath>
<clipPath id="clip1_12111_7389">
<rect width="44" height="26.0366" fill="white" transform="translate(14.75 32.75)"/>
</clipPath>
</defs>
</svg>
